<svg xmlns="http://www.w3.org/2000/svg" viewBox="0 0 64 64" id="pancakes"><g data-name="Artboard 25"><path fill="#f5b94c" d="M12,27V23a2,2,0,0,1,2-2H50a2,2,0,0,1,2,2v4Z"></path><path fill="#f7c770" d="M12,31V27a2,2,0,0,1,2-2H50a2,2,0,0,1,2,2v4Z"></path><path fill="#f5b94c" d="M12,35V31a2,2,0,0,1,2-2H50a2,2,0,0,1,2,2v4Z"></path><path fill="#d14947" d="M58,41l-4.8,4.6A4,4,0,0,1,50.16,47H13.84A4,4,0,0,1,10.8,45.6L6,41Z"></path><rect width="60" height="4" x="2" y="37" fill="#e9eaec" rx="2"></rect><path fill="#f7c770" d="M12,37V35a2,2,0,0,1,2-2H50a2,2,0,0,1,2,2v2Z"></path><path fill="#f9d655" d="M27 21V18a1 1 0 011-1h8a1 1 0 011 1v3zM17 21v9a3 3 0 003 3h0a3 3 0 003-3V21z"></path><path fill="#fade77" d="M27,21v6a2,2,0,0,1-2,2h0a2,2,0,0,1-2-2V21Z"></path><path fill="#efeff1" d="M60,37H4a1.989,1.989,0,0,0-.6.1,1.979,1.979,0,0,0-.221.9h0a2,2,0,0,0,2,2h56a1.989,1.989,0,0,0,.605-.1A1.979,1.979,0,0,0,62,39h0A2,2,0,0,0,60,37Z"></path><path fill="#b03a3c" d="M52,41H6l4.8,4.6A4,4,0,0,0,13.84,47H44.16A4,4,0,0,0,47.2,45.6Z"></path><path fill="#fade77" d="M37,18a1,1,0,0,0-1-1H28.39a.982.982,0,0,0-.057.283v1a2,2,0,0,0,2,2H37Z"></path><rect width="2" height="7.924" x="18" y="22.233" fill="#f4f4f5" rx="1"></rect><path d="M60,36H53V23a3,3,0,0,0-3-3H38V18a2,2,0,0,0-2-2H28a2,2,0,0,0-2,2v2H14a3,3,0,0,0-3,3V36H4a3,3,0,0,0,0,6H5.6l4.444,4.253A5,5,0,0,0,13.84,48H50.16a4.925,4.925,0,0,0,3.729-1.675L58.4,42H60a3,3,0,0,0,0-6Zm-9-3.816A2.966,2.966,0,0,0,50,32H23.444A3.959,3.959,0,0,0,24,30v-.184A2.966,2.966,0,0,0,25,30H50a1,1,0,0,1,1,1ZM18,30V22h4v8a2,2,0,0,1-4,0Zm8-3a1,1,0,0,1-2,0V22h2Zm25,1.184A2.966,2.966,0,0,0,50,28H27.816A2.966,2.966,0,0,0,28,27V26H50a1,1,0,0,1,1,1ZM51,23v1.184A2.966,2.966,0,0,0,50,24H28V22H50A1,1,0,0,1,51,23ZM28,18h8v2H28ZM14,22h2v2H14a2.966,2.966,0,0,0-1,.184V23A1,1,0,0,1,14,22Zm0,4h2v2H14a2.966,2.966,0,0,0-1,.184V27A1,1,0,0,1,14,26Zm0,4h2a3.959,3.959,0,0,0,.556,2H14a2.966,2.966,0,0,0-1,.184V31A1,1,0,0,1,14,30Zm-1,5a1,1,0,0,1,1-1H50a1,1,0,0,1,1,1v1H13Zm39.438,9.952A3,3,0,0,1,50.16,46H13.84A3.071,3.071,0,0,1,11.5,44.883L8.488,42H55.514ZM60,40H4a1,1,0,0,1,0-2H60a1,1,0,0,1,0,2Z"></path></g></svg>