<svg xmlns="http://www.w3.org/2000/svg" width="300mm" height="300mm" viewBox="0 0 300 300" id="sandwich"><path fill="#ffaa41" fill-rule="evenodd" d="M42.563 242.748h217.153c16.11 0 29.23-13.215 29.23-29.356 0-16.225-13.12-29.44-29.23-29.44H42.563c-16.026 0-29.23 13.215-29.23 29.44 0 16.141 13.204 29.356 29.23 29.356z"></path><path fill="#ed8f42" fill-rule="evenodd" d="M41.484 241.66h217.152c16.11 0 29.23-13.214 29.23-29.439 0-16.142-13.12-29.356-29.23-29.356h-18.933a29.344 29.344 0 0 1 6.394 18.316c0 16.142-13.12 29.44-29.147 29.44H18.648c5.397 6.69 13.618 11.04 22.836 11.04z"></path><path fill="none" stroke="#1a1a1a" stroke-linecap="round" stroke-linejoin="round" stroke-width="9" d="M113.231 243.835h146.485c16.11 0 29.23-13.214 29.23-29.356h0c0-16.141-13.12-29.44-29.23-29.44H42.563c-16.026 0-29.23 13.299-29.23 29.44h0c0 16.142 13.204 29.356 29.23 29.356h40.608"></path><path fill="#0f9700" fill-rule="evenodd" stroke="#1a1a1a" stroke-linecap="round" stroke-linejoin="round" stroke-width="9" d="M19.727 186.963h262.66c0 13.466 14.947 32.618-31.723 32.618-14.615 0-27.07-2.342-31.223-5.604-4.152 3.262-16.525 5.604-31.223 5.604-18.02 0-32.719-3.596-32.719-8.03 0-2.34-1.993-2.926-1.993 0 0 4.434-14.615 8.03-32.718 8.03-18.02 0-32.718-3.596-32.718-8.03 0-2.174-.996-2.759-.996 0 0 4.434-14.616 8.03-32.719 8.03s-32.718-3.596-32.718-8.03c0-2.09-1.578-2.759-1.91-.835z"></path><path fill="#db333f" fill-rule="evenodd" d="M37.581 162.793h94.75c9.882 0 17.854 8.112 17.854 17.981 0 9.87-7.972 17.982-17.854 17.982H37.58c-9.799 0-17.854-8.113-17.854-17.982s8.055-17.981 17.854-17.981z"></path><path fill="#c9121e" fill-rule="evenodd" d="M131.168 162.793h6.893c6.394 0 11.625 8.112 11.625 17.981 0 9.87-5.231 17.982-11.625 17.982H30.855c-5.896 0-10.713-6.775-11.543-15.473h100.314c6.394 0 11.625-8.112 11.625-17.981 0-.837 0-1.673-.083-2.51z"></path><path fill="none" stroke="#1a1a1a" stroke-linecap="round" stroke-linejoin="round" stroke-width="9" d="M37.332 162.793h94.75c9.799 0 17.854 8.112 17.854 17.981h0c0 9.87-8.055 17.982-17.854 17.982h-94.75c-9.799 0-17.854-8.113-17.854-17.982h0c0-9.869 8.055-17.981 17.854-17.981z"></path><path fill="#db333f" fill-rule="evenodd" d="M167.457 162.793h97.241c9.882 0 17.937 8.112 17.937 17.981 0 9.87-8.055 17.982-17.937 17.982h-97.24c-9.883 0-17.938-8.113-17.938-17.982s8.055-17.981 17.937-17.981z"></path><path fill="#c9121e" fill-rule="evenodd" d="M263.12 162.793h7.06c6.56 0 11.874 8.112 11.874 17.981 0 9.87-5.315 17.982-11.875 17.982H160.897c-5.979 0-10.961-6.775-11.792-15.473h102.307c6.56 0 11.875-8.112 11.875-17.981 0-.837-.083-1.673-.166-2.51z"></path><path fill="none" stroke="#1a1a1a" stroke-linecap="round" stroke-linejoin="round" stroke-width="9" d="M167.125 162.793h97.324c9.8 0 17.854 8.112 17.854 17.981h0c0 9.87-8.055 17.982-17.854 17.982h-97.324c-9.799 0-17.854-8.113-17.854-17.982h0c0-9.869 8.055-17.981 17.854-17.981z"></path><path fill="#ffaa41" fill-rule="evenodd" d="M84.748 89.528c7.557-8.949 18.85-14.72 31.473-14.72 12.04 0 23.002 5.353 30.56 13.8 7.556-8.447 18.517-13.8 30.558-13.8 14.2 0 26.822 7.36 34.296 18.484 7.39-11.123 20.013-18.483 34.213-18.483 22.67 0 41.272 18.734 41.272 41.566v23.418c0 11.207-10.298 25.76-21.342 25.76H31.021c-11.128 0-18.684-13.131-18.768-24.338l-.332-18.902c0-.836.083-1.589.166-2.425v-3.513c0-22.832 18.519-41.566 41.272-41.566 12.54 0 23.833 5.77 31.39 14.72z"></path><path fill="#ed8f42" fill-rule="evenodd" d="M84.748 90.616c7.557-8.95 18.85-14.72 31.473-14.72 12.04 0 23.002 5.353 30.56 13.8 7.556-8.447 18.517-13.8 30.558-13.8 14.2 0 26.822 7.36 34.296 18.483 7.39-11.123 20.013-18.483 34.213-18.483 22.67 0 41.272 18.734 41.272 41.566V140.964c0 9.869-8.055 22.414-17.605 25.174V152.924c0-22.916-18.601-41.567-41.272-41.567-14.2 0-26.822 7.36-34.213 18.4-7.473-11.04-20.012-18.4-34.212-18.4-12.124 0-23.086 5.27-30.643 13.716-7.556-8.447-18.435-13.716-30.559-13.716-12.539 0-23.833 5.687-31.472 14.72-7.557-9.033-18.85-14.72-31.39-14.72a40.71 40.71 0 0 0-23.667 7.527v-1.422c0-22.832 18.519-41.566 41.272-41.566 12.539 0 23.833 5.77 31.39 14.72z"></path><path fill="#ed8f42" fill-rule="evenodd" d="M204.577 118.884v-1.254c0-22.833 18.6-41.567 41.271-41.567l-29.563 37.05a42.513 42.513 0 0 0-11.708 5.771zm-68.51 0v-1.254c0-22.833 18.602-41.567 41.272-41.567l-29.562 37.05a42.513 42.513 0 0 0-11.71 5.771zm-61.117 0v-1.254c0-22.833 18.518-41.567 41.27-41.567l-40.855 42.57z"></path><path fill="none" stroke="#1a1a1a" stroke-linecap="round" stroke-linejoin="round" stroke-width="9" d="M287.12 140.964c0 11.207-10.298 25.676-21.342 25.676H31.021c-11.128 0-18.684-13.13-18.768-24.254l-.332-18.985c0-.753.083-1.59.166-2.342v-3.597c0-22.832 18.519-41.566 41.272-41.566h0c12.54 0 23.833 5.77 31.39 14.72 7.556-8.95 18.85-14.72 31.472-14.72h0c12.04 0 23.002 5.353 30.56 13.8 7.556-8.447 18.517-13.8 30.558-13.8h0c14.2 0 26.822 7.36 34.296 18.483 7.39-11.123 20.013-18.483 34.213-18.483h0c20.428 0 37.452 15.221 40.69 34.876"></path><path fill="none" stroke="#1a1a1a" stroke-linecap="round" stroke-linejoin="round" stroke-width="9" d="M204.577 127.833V117.63c0-22.833 18.6-41.567 41.271-41.567h0m-109.78 51.77V117.63c0-22.833 18.601-41.567 41.271-41.567h0m-102.39 51.77V117.63c0-22.833 18.519-41.567 41.272-41.567h0"></path></svg>