<svg xmlns="http://www.w3.org/2000/svg" width="64" height="64" id="cake"><g fill="none" fill-rule="evenodd"><path fill="#FBAE3A" d="M1.474 38.12h60.972V27.2H1.474z"></path><path fill="#F8E6C4" d="M1.474 44.846h60.972v-6.725H1.474z"></path><path fill="#CB9963" d="M1.391 56.315h61.055V44.846H1.391z"></path><path fill="#F8E6C4" d="m1.391 27.144 42.732-16.652 18.241 16.652z"></path><path fill="#EE3634" d="M48.33 16.715c0 3.722-3.017 4.884-6.74 4.884-3.724 0-6.743-1.162-6.743-4.884 0-3.723 3.019-10.913 6.743-10.913 3.723 0 6.74 7.19 6.74 10.913Z"></path><path fill="#010202" d="M41.59 5.802c-.207 0-.409.03-.61.072 1.644 2.424 2.713 5.849 2.713 8.058 0 3.723-3.018 4.886-6.741 4.886-.597 0-1.173-.034-1.724-.1.918 2.148 3.415 2.882 6.361 2.882 3.723 0 6.742-1.163 6.742-4.886 0-3.722-3.019-10.912-6.742-10.912" opacity=".2"></path><path fill="#010202" d="M62.446 27.2h-.106c-.588 1.358-13.055 28.781-60.866 29.114h60.972V27.202Z" opacity=".3"></path><path fill="#2E2E30" d="M2.784 54.924h58.271v-8.687H2.784v8.687Zm30.698-38.793c-.012.198-.026.398-.026.583 0 2.345 1.057 6.276 8.133 6.276 6.38 0 7.863-3.192 8.094-5.54l9.095 8.304H8.792l24.69-9.623Zm8.107-8.938c1.872 0 5.35 4.894 5.35 9.521 0 .956 0 3.494-5.35 3.494s-5.35-2.538-5.35-3.494c0-4.627 3.479-9.52 5.35-9.52ZM2.864 43.454h58.19v-3.943H2.864v3.943Zm.001-6.725h58.19v-8.137H2.865v8.137ZM63.26 26.077 49.192 13.235v.003c-1.119-4.137-3.938-8.827-7.603-8.827-3.57 0-6.342 4.451-7.518 8.505L.886 25.848a1.392 1.392 0 0 0-.862 1.553c.01.056.04.1.058.153v16.841c-.05.142-.082.292-.082.451v11.469c0 .769.623 1.39 1.391 1.39h61.055c.768 0 1.392-.621 1.392-1.39V27.201c0-.464-.23-.87-.578-1.124Z"></path></g></svg>