<svg xmlns="http://www.w3.org/2000/svg" enable-background="new 0 0 50 50" viewBox="0 0 50 50" id="sushi"><path fill="#E98424" d="M45.26274,17.97105c0.27107,4.38939,0.45058,11.75175,0.39872,16.14919
			c-0.02544,2.15775-0.07229,4.3198-0.19182,6.47464c-0.18368,3.31141,1.08894,6.32891-5.40147,7.13213
			c-10.01654,1.23958-20.16618,0.84788-30.22431,0.00292c-6.10938-0.51332-5.11195-4.02235-5.46772-10.8449
			c-0.29526-5.66217,0.55308-14.65177,1.2573-20.27781"></path><path fill="#EE9D35" d="M20.4782 25.87719c-4.62655 5.29386-9.99158 9.9414-15.89103 13.76586l-.03077-5.28641c2.63169-3.00758 5.26337-6.01516 7.89506-9.02274L20.4782 25.87719zM15.97482 48.41897c6.93557-6.72277 12.63828-14.59103 18.30276-22.4148l-6.60905.08786c-3.54739 2.64006-5.77962 6.63721-8.63841 10.01082-1.85862 2.19333-3.99383 4.13302-6.12221 6.06568-1.83942 1.67028-3.67885 3.34056-5.51827 5.01084L15.97482 48.41897zM45.29678 31.17519c-4.35672 5.15162-8.2052 10.73283-11.47146 16.63637l-7.27839.65069c4.56977-7.63412 9.13954-15.26823 13.70931-22.90235l5.04054-2.85292V31.17519z"></path><path fill="#EE9D35" d="M9.4968,5.9228c2.66356-4.34408,2.64117-3.52324,25.63093-4.37675
			c2.57257-0.09551,5.4824-0.06205,7.2611,1.79898c1.37544,1.4391,1.66117,3.57147,1.87826,5.55029
			c1.37521,12.5357,3.00595,15.46239-4.19893,16.35401c-10.01654,1.23958-20.16618,0.84788-30.22371,0.00297
			c-1.42056-0.11934-2.99109-0.32171-3.91904-1.4039c-1.03426-1.20616-0.72149-2.69873-0.53491-4.12392
			C5.45177,19.25657,5.18137,12.96096,9.4968,5.9228z"></path><path fill="#FFF" d="M26.34457,23.24786c-4.78891,0-9.95804-0.24667-16.26649-0.7768
			c-1.47592-0.12402-1.9202-0.30799-2.03331-0.44019c-0.13356-0.154-0.0109-1.04391,0.06269-1.57541l0.05042-0.36864
			c0.08586-0.66164,0.12674-1.31988,0.1649-1.97744c0.04225-0.72161,0.08177-1.40369,0.19897-2.0265
			c0.58737-3.10175,1.71578-6.02975,3.35387-8.70222c0.42383-0.69026,0.93489-1.44594,1.50045-1.79823
			c0.74682-0.46404,2.05648-0.51242,3.21078-0.55534L35.23145,4.3348c0.41157-0.01499,0.83131-0.02726,1.25378-0.02726
			c2.02241,0,3.25711,0.30663,3.88536,0.96555c0.72229,0.75431,0.94307,2.28747,1.12159,3.92625l1.10796,10.09296
			c0.26765,2.41602,0.31966,2.79181-2.87553,3.18693C35.54353,22.99643,31.16755,23.24786,26.34457,23.24786z"></path><path fill="#FDE699" d="M34.53888,17.57049c-0.44649,0.66982-1.42337,0.85124-2.28858,0.94894
			c-4.70288,0.50237-9.46164,0.34888-14.17849,0c-0.4884-0.04182-0.99076-0.0977-1.40948-0.293
			c-0.15349-0.06984-0.30697-0.16754-0.43261-0.29309c-0.47443-0.48848-0.33491-1.1164-0.25118-1.70257
			c0.08373-0.57212,0.06976-1.14425,0.18142-1.71646c0.30706-1.40948,0.90712-2.76309,1.74439-3.97719
			c0.30706-0.43261,0.64197-0.85133,1.13037-1.11648c0.628-0.34888,1.40948-0.37673,2.14915-0.40467
			c2.91658-0.0977,5.83325-0.19539,8.74983-0.29309c1.20012-0.04182,2.56779-0.02785,3.40506,0.75363
			c0.27912,0.25118,0.46054,0.55816,0.57221,0.89315c0.18142,0.43261,0.25118,0.921,0.30697,1.39552
			c0.18142,1.38155,0.34888,2.77706,0.51633,4.15861C34.80403,16.48203,34.87388,17.09598,34.53888,17.57049z"></path><path fill="#BFD251" d="M33.91097,10.36966c-1.04664,0.73958-2.19097,1.32567-3.33531,1.89788
			c-2.86079,1.45131-5.81928,2.91658-9.01506,3.1957c-1.15822,0.0977-2.41422,0.06976-3.34919,0.86521
			c-0.40475,0.34888-0.93506,1.18624-1.54909,1.89797c-0.15349-0.06984-0.30697-0.16754-0.43261-0.29309
			c-0.47443-0.48848-0.33491-1.1164-0.25118-1.70257c0.08373-0.57212,0.06976-1.14425,0.18142-1.71646
			c0.30706-1.40948,0.90712-2.76309,1.74439-3.97719c0.30706-0.43261,0.64197-0.85133,1.13037-1.11648
			c0.628-0.34888,1.40948-0.37673,2.14915-0.40467c2.91658-0.0977,5.83325-0.19539,8.74983-0.29309
			c1.20012-0.04182,2.56779-0.02785,3.40506,0.75363C33.61788,9.72769,33.7993,10.03467,33.91097,10.36966z"></path><path fill="#353635" d="M44.76435,8.84067c-1.0534-9.57782-5.84991-7.88344-19.08594-7.4834
			C11.98066,1.77134,11.446,1.78794,9.07051,5.66098C7.5735,8.10288,5.8318,11.81333,5.17518,16.43088
			c-0.01422,0.03723-0.03265,0.07251-0.03778,0.11389c-0.79248,6.33398-1.54004,15.00977-1.26074,20.36621
			c0.35239,6.70828-0.69043,10.76139,5.92529,11.31738c10.03274,0.84201,20.29567,1.23558,30.32764-0.00488
			c5.9043-0.73145,5.86426-3.4541,5.82568-6.08691C45.8718,36.51624,47.04311,29.60877,44.76435,8.84067z M27.1111,48.00644
			l13.32562-22.26147l0.1062-0.06006c2.3194-0.33179,3.67969-0.91565,4.47491-1.92786
			c0.05718,1.7917,0.01157,0.87885,0.02875,7.32678c-4.30859,5.10449-8.13525,10.65137-11.37549,16.49023
			C29.26054,47.89498,30.7076,47.98491,27.1111,48.00644z M9.92305,6.18442c2.07324-3.38184,2.2207-3.41699,15.78516-3.82813
			c13.73232-0.41466,17.13463-1.84583,18.06201,6.59375c0.38383,3.50079,0.82146,6.46649,1.04865,8.80823
			c-0.54125,1.12471,1.84397,5.53244-3.09833,6.69714c-0.00092-0.00342-0.00397-0.0061-0.00476-0.00952l-0.03381,0.01904
			c-7.60865,1.76383-23.96237,0.94736-31.79553,0.28979c-5.06788-0.42756-4.05994-2.51511-3.9834-5.31641
			C6.06563,13.63755,8.17891,9.02915,9.92305,6.18442z M9.88594,47.23227c-0.72101-0.06055-1.3222-0.16541-1.84302-0.30811
			l5.03296-4.56982c2.09912-1.90625,4.27002-3.87793,6.14502-6.08984c0.91797-1.08398,1.78369-2.24707,2.62061-3.37109
			c1.6925-2.27429,3.44458-4.61597,5.68616-6.37036c2.14063-0.01855,4.21228-0.07996,6.20978-0.19983
			c-5.32055,7.34863-10.83911,14.89929-17.39941,21.37585C14.06239,47.56479,11.89674,47.40085,9.88594,47.23227z
			 M11.62611,25.89707L4.821,33.67392c0.02899-2.94592,0.24188-6.38794,0.53864-9.75964
			C6.66574,25.75346,9.14273,25.70322,11.62611,25.89707z M4.8188,34.43637l7.42889-8.49023
			c2.65662,0.20129,5.10938,0.34668,7.43445,0.44434c-4.34241,4.85059-9.28858,9.12292-14.72522,12.70972
			C4.89617,36.73778,4.82171,36.48778,4.8188,34.43637z M4.97255,39.68552c5.68835-3.72083,10.84839-8.18176,15.35321-13.26794
			c2.26269,0.08702,4.11716,0.12293,6.3905,0.11633c-2.05444,1.73792-3.69019,3.9303-5.27563,6.06067
			c-0.83252,1.11816-1.69336,2.27441-2.60156,3.34668c-1.85352,2.1875-4.01172,4.14746-6.09912,6.04199l-5.2442,4.76294
			C4.97057,45.7705,5.05917,43.23694,4.97255,39.68552z M17.00111,47.73667c6.55157-6.53516,12.06439-14.10742,17.38836-21.46143
			c1.85797-0.1228,3.67236-0.28491,5.4458-0.4989L26.52705,48.00913C23.22182,48.01474,20.01808,47.90488,17.00111,47.73667z
			 M44.95527,42.15122c0.06599,4.48562-1.17591,5.00911-10.8172,5.62085c3.15143-5.67188,6.86316-11.0603,11.02997-16.03809
			C45.19154,37.60258,44.92828,40.25075,44.95527,42.15122z"></path><path fill="#353635" d="M10.05732,22.72055c9.85459,0.82686,19.8443,1.22453,29.69824,0.00684
			c3.32471-0.41113,3.37695-0.90234,3.09326-3.46289C41.29737,5.63922,42.3637,4.05747,36.48506,4.05747
			c-0.42529,0-0.84814,0.0127-1.2627,0.02734c-20.61195,0.76612-20.88451,0.6051-21.97803,1.28613
			c-0.60986,0.37891-1.1416,1.16211-1.58203,1.87891c-1.65381,2.69922-2.79297,5.65527-3.38623,8.78711
			c-0.12012,0.6377-0.16016,1.32617-0.20264,2.05762C7.82349,22.42286,6.83624,22.44954,10.05732,22.72055z M8.76729,16.12973
			c0.58154-3.07227,1.69922-5.97168,3.32129-8.61816c0.40967-0.66699,0.89844-1.39258,1.41992-1.7168
			c0.94335-0.58742,1.24166-0.44925,21.73193-1.20996c0.4082-0.01465,0.8252-0.02734,1.24463-0.02734
			c1.94971,0,3.12695,0.28223,3.70508,0.88867c0.97149,1.01477,0.89038,2.65651,2.16406,13.89551
			c0.25879,2.33496,0.27979,2.52539-2.66016,2.88965c-13.34182,1.64764-30.83754,0.09514-31.44092-0.33398
			C8.21591,21.7995,8.73063,16.32483,8.76729,16.12973z"></path><path fill="#353635" d="M18.0544 18.76548c2.32704.1719 15.26272 1.07622 16.69531-1.04883.39258-.58105.30322-1.2959.23828-1.81836-.98935-4.53339.57925-7.60694-5.0625-7.42578C29.8182 8.47546 20.25846 8.73289 19.4535 8.97666c-2.37131.71933-3.78818 5.3452-3.81098 8.03125C15.62564 18.31511 16.75672 18.66842 18.0544 18.76548zM16.38551 14.73349c.24656-1.46957 1.50698-4.40969 2.77094-5.09399.72613-.40382 1.32787-.34531 5.86914-.50183 5.14005-.16662 7.73255-.65964 8.57721 1.14148-1.67452 1.14858-8.03753 4.58381-12.06305 4.93555-.15576.0127-.31348.02344-.47217.03516-3.09545.2119-3.01463.9063-4.45831 2.65051C16.07712 17.55172 15.99752 17.25164 16.38551 14.73349zM34.49189 15.96079c.17551 1.40407-.05955 2.06606-2.26807 2.30566-6.09675.66143-14.1856.1185-15.15179-.1554 1.39324-1.72597 1.29694-2.17428 4.03021-2.36316.16064-.01074.32129-.02148.48047-.03516 4.06406-.35552 10.27365-3.67369 12.19555-4.96692C33.95985 11.40524 33.95671 11.76911 34.49189 15.96079zM30.45088 20.93735c-.30599.04371-.27115.49707.03564.49707.02573 0 1.53459-.22091 1.56006-.22461.13672-.01953.23145-.14648.21191-.2832C32.19577 20.4982 31.61118 20.84164 30.45088 20.93735zM38.20967 19.2352c.17932-.27713-.23978-.54989-.41992-.27148-.16797.25977-.40039.47559-.67236.62402C36.70177 19.81475 37.27413 20.68142 38.20967 19.2352zM38.24971 13.9813c-.06522-.8129.16111-1.39355-.25-1.39355-.13818 0-.25.1123-.25.25v1.14355C37.74971 14.31208 38.24971 14.31207 38.24971 13.9813zM40.07881 16.46274c.00439 0 .00928 0 .01416 0 .40789-.02314.16111-.6242.18262-1.19043-.00732-.13672-.11133-.22754-.26367-.23535-.1377.00781-.24316.12598-.23535.26465l.05273.92578C39.83662 16.3602 39.94697 16.46274 40.07881 16.46274zM35.64033 12.21567c.00586.00098.01172.00098.01807.00098.12988 0 .23975-.10059.24902-.23242-.01633-.42612.217-1.00137-.17676-1.0293-.38565-.05865-.25368.63552-.32227.99414C35.39863 12.08677 35.50264 12.20591 35.64033 12.21567zM38.36152 9.64927c.31055.77903.25686 1.15137.56396 1.15137.54224 0-.00014-.85914-.08936-1.30957C38.73095 9.17786 38.25723 9.33521 38.36152 9.64927zM35.80781 8.78208c.38777-.06115.04235-.43602.2959-1.08301.12085-.30741-.34469-.48911-.46582-.18164-.13086.33496-.1709.70019-.11572 1.05566C35.54258 8.70603 35.66584 8.80311 35.80781 8.78208zM38.23066 6.71372c.36048.00955.87706.29472.94141-.09766.02246-.13672-.06934-.26465-.20557-.28809l-.65381-.1084c-.13867-.02148-.26563.07031-.2876.20605C38.00264 6.56235 38.09443 6.69028 38.23066 6.71372zM33.04414 6.22641c.00488 0 .01074 0 .01611-.00098l.87109-.05469c.1377-.00879.24219-.12695.2334-.26465s-.13037-.25781-.26563-.2334l-.87109.05469c-.1377.00879-.24219.12695-.2334.26465C32.80293 6.12485 32.91328 6.22641 33.04414 6.22641zM28.99141 7.3768c.47742-.10944 1.08351.01629 1.03564-.37793-.0166-.1377-.146-.23438-.27832-.21777l-.81787.09961c-.13721.0166-.23438.1416-.21777.27832C28.72818 7.28564 28.83894 7.39133 28.99141 7.3768zM23.53193 6.33579c.0127.00195.0249.00293.03711.00293.12158 0 .22852-.08887.24707-.21387.02002-.13672-.07471-.26367-.21094-.2832l-1.47021-.21777c-.13818-.02148-.26416.07227-.28418.20996C21.78702 6.25893 22.45059 6.1037 23.53193 6.33579zM25.20088 7.41782c.32328-.07028.21826-.55815-.10547-.48828-.4257.14127-1.03728.07183-.9541.46094C24.22546 7.77885 24.80295 7.45239 25.20088 7.41782zM17.86397 7.66489c.21418-.16124.772-.27979.58643-.61328-.17373-.31449-.61359.09171-.82959.17578-.12061.06738-.16406.21973-.09668.34082C17.59126 7.68949 17.74526 7.731 17.86397 7.66489zM13.03145 8.78403c.61992-.51476 1.22462-.66362.98828-1-.0791-.11328-.23633-.13965-.34814-.06152l-.92725.65137c-.11328.08008-.14063.23535-.06104.34863C12.7627 8.83639 12.91939 8.86209 13.03145 8.78403zM16.54463 9.25669c.1623-.29167-.27892-.53154-.43652-.24414-.09967.25799-.50767.64825-.17432.83105C16.24329 10.01819 16.34665 9.56086 16.54463 9.25669zM12.96455 12.12192c.36252-.83582.93171-.86726.66406-1.19141-.31748-.3782-.94064.57245-1.12305.99219-.05469.12695.00342.27441.12988.3291C12.76913 12.30767 12.91124 12.24377 12.96455 12.12192zM10.55928 15.42954c.13818-.00293.24756-.11719.24512-.25488-.01702-.87768.57108-1.11286.21289-1.34863-.42434-.27564-.72336.82102-.71289 1.3584C10.30732 15.32114 10.65957 15.47269 10.55928 15.42954zM13.89814 14.25376v.76172c0 .33078.5.33077.5 0v-.76172C14.39814 13.92297 13.89814 13.92299 13.89814 14.25376zM12.76436 16.70395c-.03623-.2576.12792-.79492-.25-.79492-.35928 0-.21771.5654-.25.79492C12.26436 17.03474 12.76436 17.03473 12.76436 16.70395zM10.30977 20.08774c-.18065-.94142.20783-1.32044-.19873-1.39648-.45536-.11836-.3755 1.05711-.29248 1.49023C9.88122 20.50949 10.37133 20.41069 10.30977 20.08774zM13.28975 20.11509c.01367.00195.02734.00293.04102.00293.30362 0 .34265-.44718.04004-.49707-.91305-.08453-1.52462-.4305-1.59424-.00977C11.70761 20.03088 12.36181 19.89321 13.28975 20.11509zM16.44795 20.37485c-.33689-.01488-.35206.48147-.02539.5.62986.03242 1.27681.20914 1.29688-.18359C17.74151 20.27619 17.09279 20.46497 16.44795 20.37485zM22.53438 19.99302c-.75035.06292-1.33936-.15893-1.33936.25 0 .41707.6287.19041 1.33936.25C22.8652 20.49302 22.86501 19.99302 22.53438 19.99302zM25.22627 20.32114c-.31448-.04321-.38669.46672-.04688.49805.76097.00688 1.37669.30122 1.41602-.11719C26.63413 20.28209 25.979 20.4536 25.22627 20.32114zM22.93574 21.51938c-.31395-.04217-.38163.4714-.04004.49805l.65332.05371c.00684.00098.01367.00098.02051.00098.12891 0 .23828-.09863.24854-.22949C23.84971 21.45467 23.27259 21.58933 22.93574 21.51938zM36.91035 17.3895c.31156 0 .25652-.39933.45801-.94434.09044-.31536-.38947-.46055-.48047-.13672l-.21777.76172C36.62425 17.23011 36.7445 17.3895 36.91035 17.3895zM34.63984 20.45395c.19404 0 .19729-.13524.93701-.9082.22356-.24474-.14947-.58084-.37012-.33594l-.75195.82617C34.30859 20.19603 34.42476 20.45395 34.63984 20.45395z"></path></svg>